# xmcd CD database file
#
# Track frame offsets:
#	150
#	12181
#	33412
#	47708
#	59416
#	77240
#	93227
#	107570
#	122636
#	145654
#	160502
#	177654
#
# Disc length: 2563 seconds
#
# Revision: 5
# Processed by: cddbd v1.5.1PL2 Copyright (c) Steve Scherf et al.
# Submitted via: CDex 1.51
#
DISCID=940a010c
DTITLE=Chris Whitley - Perfect Day - with Bonus
DYEAR=1900
DGENRE=Blues
TTITLE0=Spanish Harlem Incident
TTITLE1=Smokestack Lightning
TTITLE2=China Gate
TTITLE3=Drifting
TTITLE4=She's Alright
TTITLE5=Perfect Day
TTITLE6=Wild Ox Moan
TTITLE7=Crystal Ship
TTITLE8=Spoonful
TTITLE9=Stones In My Pathway
TTITLE10=4th Time Around
TTITLE11=Starve To Death
EXTD=
EXTT0=
EXTT1=
EXTT2=
EXTT3=
EXTT4=
EXTT5=
EXTT6=
EXTT7=
EXTT8=
EXTT9=
EXTT10=
EXTT11=
PLAYORDER=
